<svg width="50" height="50" viewBox="0 0 50 50" fill="none" xmlns="http://www.w3.org/2000/svg">
<g clip-path="url(#clip0_59921_45812)">
<path d="M17.9999 32.0015C17.9999 32.6431 18.5249 33.1681 19.1666 33.1681H20.3333V37.2515C20.3333 38.2198 21.1149 39.0015 22.0833 39.0015C23.0516 39.0015 23.8333 38.2198 23.8333 37.2515V33.1681H26.1666V37.2515C26.1666 38.2198 26.9483 39.0015 27.9166 39.0015C28.8849 39.0015 29.6666 38.2198 29.6666 37.2515V33.1681H30.8333C31.4749 33.1681 31.9999 32.6431 31.9999 32.0015V20.3348H17.9999V32.0015ZM15.0833 20.3348C14.1149 20.3348 13.3333 21.1165 13.3333 22.0848V30.2515C13.3333 31.2198 14.1149 32.0015 15.0833 32.0015C16.0516 32.0015 16.8333 31.2198 16.8333 30.2515V22.0848C16.8333 21.1165 16.0516 20.3348 15.0833 20.3348ZM34.9166 20.3348C33.9483 20.3348 33.1666 21.1165 33.1666 22.0848V30.2515C33.1666 31.2198 33.9483 32.0015 34.9166 32.0015C35.8849 32.0015 36.6666 31.2198 36.6666 30.2515V22.0848C36.6666 21.1165 35.8849 20.3348 34.9166 20.3348ZM29.1183 13.5215L30.6408 11.999C30.8682 11.7715 30.8682 11.404 30.6408 11.1765C30.4132 10.949 30.0457 10.949 29.8183 11.1765L28.0916 12.8973C27.1583 12.4365 26.1141 12.1681 24.9999 12.1681C23.8799 12.1681 22.8299 12.4365 21.8908 12.9031L20.1583 11.1706C19.9308 10.9431 19.5633 10.9431 19.3358 11.1706C19.1083 11.3981 19.1083 11.7656 19.3358 11.9931L20.8641 13.5215C19.1316 14.799 17.9999 16.8523 17.9999 19.1681H31.9999C31.9999 16.8465 30.8624 14.7931 29.1183 13.5215ZM22.6666 16.8348H21.4999V15.6681H22.6666V16.8348ZM28.4999 16.8348H27.3333V15.6681H28.4999V16.8348Z" fill="#BFBFCB"/>
</g>
<defs>
<clipPath id="clip0_59921_45812">
<rect width="28" height="28" fill="white" transform="translate(11 11)"/>
</clipPath>
</defs>
</svg>
