<svg width="32" height="32" viewBox="0 0 32 32" fill="none" xmlns="http://www.w3.org/2000/svg">
<path d="M15.9993 2.66669C14.2484 2.66669 12.5146 3.01156 10.8969 3.68163C9.27923 4.35169 7.80937 5.33382 6.57126 6.57193C4.07077 9.07242 2.66602 12.4638 2.66602 16C2.66602 19.5362 4.07077 22.9276 6.57126 25.4281C7.80937 26.6662 9.27923 27.6484 10.8969 28.3184C12.5146 28.9885 14.2484 29.3334 15.9993 29.3334C19.5356 29.3334 22.927 27.9286 25.4274 25.4281C27.9279 22.9276 29.3327 19.5362 29.3327 16C29.3327 14.2491 28.9878 12.5152 28.3177 10.8976C27.6477 9.2799 26.6656 7.81004 25.4274 6.57193C24.1893 5.33382 22.7195 4.35169 21.1018 3.68163C19.4841 3.01156 17.7503 2.66669 15.9993 2.66669ZM21.5993 21.6L14.666 17.3334V9.33335H16.666V16.2667L22.666 19.8667L21.5993 21.6Z" fill="white"/>
</svg>
