<svg width="32" height="32" viewBox="0 0 32 32" fill="none" xmlns="http://www.w3.org/2000/svg">
<path d="M22.6662 5.33331C24.1408 5.33331 25.2728 6.45731 26.1115 7.66665L26.3955 8.09465L26.6555 8.52131C26.7382 8.66087 26.8173 8.79776 26.8928 8.93198C27.9422 10.808 28.8555 13.2573 29.4595 15.6773C30.0595 18.0786 30.3915 20.5866 30.1795 22.5586C29.9662 24.5386 28.9462 26.6666 26.6662 26.6666C24.6208 26.6666 23.0088 25.5733 21.6995 24.5053L20.2195 23.264C18.9888 22.256 17.6422 21.3333 15.9995 21.3333C14.3568 21.3333 13.0088 22.256 11.7808 23.264L10.3008 24.504C8.98885 25.5733 7.37685 26.6666 5.33285 26.6666C3.05151 26.6666 2.03151 24.5386 1.81951 22.5586C1.60885 20.5853 1.93951 18.0786 2.53951 15.6773C3.14351 13.2573 4.05685 10.808 5.10618 8.93198L5.34351 8.51998L5.60351 8.09465L5.88751 7.66665C6.72618 6.45731 7.85818 5.33331 9.33285 5.33331C10.0128 5.33331 10.6888 5.49865 11.3528 5.69331L12.1435 5.93598C12.2742 5.97598 12.404 6.0142 12.5328 6.05065C13.6862 6.38131 14.8662 6.66665 15.9995 6.66665C17.1328 6.66665 18.3128 6.38131 19.4662 6.05065L20.6462 5.69465C21.3102 5.49865 21.9862 5.33331 22.6662 5.33331ZM11.3328 10.6666C10.4488 10.6666 9.60095 11.0178 8.97582 11.643C8.3507 12.2681 7.99951 13.1159 7.99951 14C7.99951 14.884 8.3507 15.7319 8.97582 16.357C9.60095 16.9821 10.4488 17.3333 11.3328 17.3333C12.2169 17.3333 13.0647 16.9821 13.6899 16.357C14.315 15.7319 14.6662 14.884 14.6662 14C14.6662 13.1159 14.315 12.2681 13.6899 11.643C13.0647 11.0178 12.2169 10.6666 11.3328 10.6666ZM20.6662 10.6666C20.3126 10.6666 19.9734 10.8071 19.7234 11.0572C19.4733 11.3072 19.3328 11.6464 19.3328 12V12.6666H18.6662C18.3126 12.6666 17.9734 12.8071 17.7234 13.0572C17.4733 13.3072 17.3328 13.6464 17.3328 14C17.3328 14.3536 17.4733 14.6927 17.7234 14.9428C17.9734 15.1928 18.3126 15.3333 18.6662 15.3333H19.3328V16C19.3328 16.3536 19.4733 16.6927 19.7234 16.9428C19.9734 17.1928 20.3126 17.3333 20.6662 17.3333C21.0198 17.3333 21.3589 17.1928 21.609 16.9428C21.859 16.6927 21.9995 16.3536 21.9995 16V15.3333H22.6662C23.0198 15.3333 23.3589 15.1928 23.609 14.9428C23.859 14.6927 23.9995 14.3536 23.9995 14C23.9995 13.6464 23.859 13.3072 23.609 13.0572C23.3589 12.8071 23.0198 12.6666 22.6662 12.6666H21.9995V12C21.9995 11.6464 21.859 11.3072 21.609 11.0572C21.3589 10.8071 21.0198 10.6666 20.6662 10.6666ZM11.3328 13.3333C11.5097 13.3333 11.6792 13.4036 11.8043 13.5286C11.9293 13.6536 11.9995 13.8232 11.9995 14C11.9995 14.1768 11.9293 14.3464 11.8043 14.4714C11.6792 14.5964 11.5097 14.6666 11.3328 14.6666C11.156 14.6666 10.9865 14.5964 10.8614 14.4714C10.7364 14.3464 10.6662 14.1768 10.6662 14C10.6662 13.8232 10.7364 13.6536 10.8614 13.5286C10.9865 13.4036 11.156 13.3333 11.3328 13.3333Z" fill="white"/>
</svg>
